<svg width="21" height="18" viewBox="0 0 21 18" fill="none" xmlns="http://www.w3.org/2000/svg">
<path d="M11.9166 0.75C7.36079 0.75 3.66663 4.44417 3.66663 9H0.916626L4.48246 12.5658L4.54663 12.6942L8.24996 9H5.49996C5.49996 5.4525 8.36913 2.58333 11.9166 2.58333C15.4641 2.58333 18.3333 5.4525 18.3333 9C18.3333 12.5475 15.4641 15.4167 11.9166 15.4167C10.1475 15.4167 8.54329 14.6925 7.38829 13.5283L6.08663 14.83C7.58079 16.3242 9.63413 17.25 11.9166 17.25C16.4725 17.25 20.1666 13.5558 20.1666 9C20.1666 4.44417 16.4725 0.75 11.9166 0.75ZM11 5.33333V9.91667L14.9233 12.245L15.5833 11.1358L12.375 9.22917V5.33333H11Z" fill="#737373"/>
</svg>
